#!OML:ASF I:\Actors\actors\Patient Classification 2\Patient 1\Session 1\actor1.ASF
:FULLY-SPECIFIED
:DEGREES
355
root -0.71592 18.8799 4.47253 11.3033 -8.06417 0.26419
lowerback 35.029 -4.36401 -3.08378
upperback 8.46647 -6.91965 -3.34747
thorax -8.33871 -3.18839 0.678696
lowerneck -13.8808 6.85994 7.91507
upperneck 30.3822 9.27776 -5.77439
head 13.1574 4.138 -2.1759
rclavicle -2.22639e-014 3.18055e-014
rhumerus -31.3783 34.3366 -68.9112
rradius 108.897
rwrist -41.5777
rhand -36.7421 -70.6448
rfingers 7.12502
rthumb -9.8258 100.396
lclavicle -2.22639e-014 3.18055e-014
lhumerus -14.8414 -16.0791 97.1192
lradius 83.6248
lwrist 89.8501
lhand -32.9785 -3.82202
lfingers 7.12502
lthumb -6.19348 26.0674
rfemur 0 0 0
rtibia 0
rfoot 0 0
rtoes 0
lfemur -20.1285 5.35861 -14.4272
ltibia 22.7892
lfoot -15.6007 11.3722
ltoes -55.7995
356
root -0.701487 18.8783 4.47839 11.2004 -8.2101 0.183934
lowerback 35.1596 -4.36465 -3.61894
upperback 8.48533 -7.11832 -3.4274
thorax -8.31103 -3.27642 0.948768
lowerneck -13.4476 7.02021 8.32604
upperneck 30.3984 9.31451 -5.46749
head 13.084 4.24196 -2.13304
rclavicle -6.99722e-014 -4.6118e-014
rhumerus -33.8931 35.3738 -69.2916
rradius 110.012
rwrist -43.1089
rhand -36.4296 -71.3438
rfingers 7.12502
rthumb -9.52436 101.109
lclavicle -6.99722e-014 -4.6118e-014
lhumerus -16.3107 -16.5144 97.5533
lradius 84.8034
lwrist 90.8292
lhand -33.4022 -4.80231
lfingers 7.12502
lthumb -6.60248 25.0748
rfemur 0 0 0
rtibia 0
rfoot 0 0
rtoes 0
lfemur -20.0296 5.46204 -14.3938
ltibia 22.932
lfoot -15.7315 11.3687
ltoes -55.6724
357
root -0.685276 18.876 4.48411 11.1273 -8.41048 0.0753615
lowerback 35.4087 -4.33393 -4.18631
upperback 8.41526 -7.29549 -3.45226
thorax -8.29107 -3.35306 1.25292
lowerneck -12.9776 7.15827 8.70773
upperneck 30.3857 9.36362 -5.25697
head 12.9965 4.33636 -2.12231
rclavicle 5.88403e-014 6.36111e-015
rhumerus -36.4621 36.3166 -69.6478
rradius 111.125
rwrist -44.7162
rhand -36.1072 -71.1481
rfingers 7.12502
rthumb -9.21322 100.927
lclavicle 5.88403e-014 6.36111e-015
lhumerus -17.8109 -16.7372 98.0965
lradius 85.9037
lwrist 91.6927
lhand -33.4797 -5.5629
lfingers 7.12502
lthumb -6.67731 24.3118
rfemur 0 0 0
rtibia 0
rfoot 0 0
rtoes 0
lfemur -19.955 5.59117 -14.3433
ltibia 23.0818
lfoot -15.8781 11.4088
ltoes -55.5591
358
root -0.668857 18.8745 4.48801 11.0756 -8.57507 -0.0459008
lowerback 35.6348 -4.32114 -4.68927
upperback 8.45495 -7.46938 -3.49435
thorax -8.26826 -3.4298 1.53716
lowerneck -12.7352 7.2891 8.95684
upperneck 30.4246 9.38537 -4.91575
head 12.9611 4.41486 -2.03671
rclavicle -1.46306e-013 4.77083e-015
rhumerus -39.1392 37.0578 -70.2247
rradius 112.232
rwrist -46.1186
rhand -36.8115 -70.2121
rfingers 7.12502
rthumb -9.89279 99.9597
lclavicle -1.46306e-013 4.77083e-015
lhumerus -19.3306 -16.846 98.6734
lradius 87.1398
lwrist 92.6507
lhand -33.352 -5.76629
lfingers 7.12502
lthumb -6.55405 24.1123
rfemur 0 0 0
rtibia 0
rfoot 0 0
rtoes 0
lfemur -19.9227 5.69231 -14.2723
ltibia 23.2527
lfoot -16.0402 11.4339
ltoes -55.5401
359
root -0.651845 18.8741 4.48785 11.1033 -8.67231 -0.201262
lowerback 35.846 -4.3647 -5.05723
upperback 8.54639 -7.66621 -3.57026
thorax -8.20034 -3.52043 1.7212
lowerneck -12.7105 7.40368 9.12893
upperneck 30.4173 9.35369 -4.46722
head 12.9371 4.47134 -1.89814
rclavicle -5.24792e-014 9.54166e-015
rhumerus -41.867 37.5915 -71.0718
rradius 113.386
rwrist -47.0505
rhand -37.2592 -69.7105
rfingers 7.12502
rthumb -10.3247 99.437
lclavicle -5.24792e-014 9.54166e-015
lhumerus -20.7187 -16.9777 99.1908
lradius 88.4616
lwrist 93.5788
lhand -33.2582 -5.6502
lfingers 7.12502
lthumb -6.46348 24.2312
rfemur 0 0 0
rtibia 0
rfoot 0 0
rtoes 0
lfemur -20.019 5.79802 -14.1685
ltibia 23.4551
lfoot -16.1642 11.3856
ltoes -55.5664
360
root -0.632987 18.8742 4.48463 11.1861 -8.7815 -0.391854
lowerback 36.0984 -4.42502 -5.46083
upperback 8.6728 -7.89537 -3.63238
thorax -8.09764 -3.62825 1.94835
lowerneck -12.7342 7.55454 9.36086
upperneck 30.3081 9.39088 -4.14414
head 12.8984 4.54869 -1.80473
rclavicle -7.95139e-014 4.13472e-014
rhumerus -44.4981 38.1644 -72.0083
rradius 114.534
rwrist -47.6816
rhand -37.2288 -69.8668
rfingers 7.12502
rthumb -10.2954 99.5948
lclavicle -7.95139e-014 4.13472e-014
lhumerus -21.9143 -17.019 99.6674
lradius 89.7296
lwrist 94.14
lhand -33.1953 -5.56244
lfingers 7.12502
lthumb -6.40275 24.3208
rfemur 0 0 0
rtibia 0
rfoot 0 0
rtoes 0
lfemur -20.2042 5.92924 -14.0434
ltibia 23.6976
lfoot -16.2476 11.3568
ltoes -55.5767
361
root -0.614302 18.873 4.4782 11.2586 -8.90836 -0.584062
lowerback 36.4614 -4.44139 -5.99039
upperback 8.82957 -8.1174 -3.66387
thorax -7.97579 -3.73387 2.27071
lowerneck -12.7198 7.7624 9.80177
upperneck 30.0856 9.54294 -4.09734
head 12.8446 4.66626 -1.83402
rclavicle 2.06736e-014 -7.31528e-014
rhumerus -46.9157 38.414 -73.1364
rradius 115.622
rwrist -48.1248
rhand -36.5108 -70.5954
rfingers 7.12502
rthumb -9.60263 100.357
lclavicle 2.06736e-014 -7.31528e-014
lhumerus -22.8756 -17.0211 100.089
lradius 90.8587
lwrist 94.3837
lhand -32.9899 -5.51396
lfingers 7.12502
lthumb -6.2045 24.3752
rfemur 0 0 0
rtibia 0
rfoot 0 0
rtoes 0
lfemur -20.4054 6.10477 -13.9176
ltibia 23.9799
lfoot -16.346 11.3197
ltoes -55.573
362
root -0.595245 18.8711 4.46787 11.4412 -9.00456 -0.764469
lowerback 36.7845 -4.40318 -6.5718
upperback 8.96802 -8.28141 -3.61062
thorax -7.83822 -3.81537 2.68292
lowerneck -12.6252 7.93698 10.2075
upperneck 29.7502 9.68973 -4.13753
head 12.7304 4.76924 -1.89433
rclavicle -1.27222e-014 -2.8625e-014
rhumerus -49.1111 37.9659 -74.3658
rradius 116.83
rwrist -48.4355
rhand -35.6271 -71.1687
rfingers 7.12502
rthumb -8.75001 100.967
lclavicle -1.27222e-014 -2.8625e-014
lhumerus -23.6709 -17.0144 100.567
lradius 91.8967
lwrist 94.6485
lhand -32.7388 -5.22267
lfingers 7.12502
lthumb -5.96207 24.6734
rfemur 0 0 0
rtibia 0
rfoot 0 0
rtoes 0
lfemur -20.776 6.3008 -13.816
ltibia 24.3068
lfoot -16.4564 11.249
ltoes -55.53
363
root -0.573378 18.87 4.45256 11.8143 -9.04205 -0.92117
lowerback 36.9074 -4.40185 -7.07198
upperback 9.17303 -8.44067 -3.54777
thorax -7.56232 -3.90666 3.04384
lowerneck -12.6686 8.08566 10.5573
upperneck 29.3559 9.79856 -4.16873
head 12.6145 4.84877 -1.94278
rclavicle -9.54166e-015 -1.90833e-014
rhumerus -51.1492 37.9196 -75.3208
rradius 117.775
rwrist -49.1604
rhand -36.3329 -70.5483
rfingers 7.12502
rthumb -9.431 100.317
lclavicle -9.54166e-015 -1.90833e-014
lhumerus -24.1829 -16.9928 100.944
lradius 92.8855
lwrist 95.0763
lhand -32.6944 -4.77511
lfingers 7.12502
lthumb -5.91916 25.1222
rfemur 0 0 0
rtibia 0
rfoot 0 0
rtoes 0
lfemur -21.4257 6.45889 -13.7669
ltibia 24.6909
lfoot -16.5235 11.1631
ltoes -55.466
364
root -0.548774 18.8682 4.43346 12.2676 -9.03376 -1.13816
lowerback 36.9963 -4.40342 -7.4187
upperback 9.45233 -8.53706 -3.46527
thorax -7.21335 -3.97759 3.31761
lowerneck -13.0713 8.19081 10.8164
upperneck 29.1717 9.79475 -4.05557
head 12.6352 4.88002 -1.92635
rclavicle 1.06549e-013 -6.36111e-015
rhumerus -53.1192 37.4997 -76.2933
rradius 118.703
rwrist -49.643
rhand -37.2609 -71.3217
rfingers 7.12502
rthumb -10.3264 101.048
lclavicle 1.06549e-013 -6.36111e-015
lhumerus -24.4004 -17.1325 101.198
lradius 93.7961
lwrist 95.4003
lhand -32.8358 -4.50004
lfingers 7.12502
lthumb -6.05564 25.3934
rfemur 0 0 0
rtibia 0
rfoot 0 0
rtoes 0
lfemur -22.2127 6.64309 -13.6708
ltibia 25.1328
lfoot -16.5417 11.0349
ltoes -55.4543
365
root -0.521571 18.8644 4.40986 12.7266 -8.99444 -1.4134
lowerback 37.2819 -4.42151 -7.60801
upperback 9.68695 -8.61555 -3.36722
thorax -7.00296 -4.03163 3.5386
lowerneck -13.5459 8.2899 10.9187
upperneck 29.0483 9.77645 -3.81388
head 12.676 4.90283 -1.83526
rclavicle -4.77083e-015 9.54166e-015
rhumerus -55.0829 36.8673 -77.3563
rradius 119.601
rwrist -50.0438
rhand -37.7624 -73.0482
rfingers 7.12502
rthumb -10.8101 102.75
lclavicle -4.77083e-015 9.54166e-015
lhumerus -24.4892 -17.3583 101.346
lradius 94.5729
lwrist 95.4327
lhand -32.9358 -4.41117
lfingers 7.12502
lthumb -6.15221 25.4795
rfemur 0 0 0
rtibia 0
rfoot 0 0
rtoes 0
lfemur -23.0616 7.0016 -13.5486
ltibia 25.6182
lfoot -16.4645 10.7711
ltoes -55.5283
